<svg width="52" height="52" viewBox="0 0 52 52" fill="none" xmlns="http://www.w3.org/2000/svg">
<path d="M17.6982 1.625C13.6442 1.625 10.335 4.89905 10.335 8.9375V13H7.89746H3.02246C1.68614 13 0.584961 14.1013 0.584961 15.4375V23.5625V30.0117V42.25V47.9375C0.584961 49.2739 1.68614 50.375 3.02246 50.375H7.89746H33.8975H48.4717H48.5225C48.5563 50.3771 48.5902 50.3771 48.624 50.375C48.6409 50.3755 48.6579 50.3755 48.6748 50.375C48.863 50.3391 49.0324 50.2379 49.1532 50.0892C49.2739 49.9406 49.3383 49.754 49.335 49.5625V28.4375C49.3349 28.222 49.2493 28.0154 49.097 27.863C48.9446 27.7106 48.7379 27.625 48.5225 27.625H36.335V15.4375C36.335 14.1013 35.2338 13 33.8975 13H28.2607V10.5625C28.2607 7.04604 25.7937 4.10282 22.4717 3.40234C21.1852 2.3013 19.526 1.625 17.6982 1.625ZM17.6982 3.25C18.2275 3.25 18.737 3.32245 19.2217 3.45312C16 4.22719 13.585 7.11696 13.585 10.5625V13H11.96V8.9375C11.96 5.77606 14.5115 3.25 17.6982 3.25ZM20.9482 4.875C21.2248 4.875 21.4953 4.88898 21.7607 4.92578C22.793 5.95248 23.3857 7.35678 23.3857 8.9375V13H15.21V10.5625C15.21 7.40106 17.7615 4.875 20.9482 4.875ZM24.4522 6.09375C25.7931 7.13086 26.6357 8.72675 26.6357 10.5625V13H25.0107V8.9375C25.0107 7.92789 24.8242 6.9686 24.4522 6.09375ZM3.02246 14.625H5.61231C5.52455 14.8752 5.45996 15.1591 5.45996 15.4375C5.45728 15.7999 5.21568 16.2074 4.69824 16.4531C4.17764 16.7003 3.49228 16.7003 2.97168 16.4531C2.45424 16.2038 2.21264 15.7999 2.20996 15.4375C2.20996 15.3215 2.22083 15.2307 2.26074 15.1328C2.29605 15.0462 2.40269 14.946 2.46387 14.8789C2.53642 14.8063 2.61984 14.7157 2.71777 14.6758C2.8157 14.6359 2.90642 14.625 3.02246 14.625ZM7.89746 14.625H13.585V17.2148C12.6343 17.5483 11.96 18.4419 11.96 19.5C11.96 20.8366 13.0609 21.9375 14.3975 21.9375C15.734 21.9375 16.835 20.8366 16.835 19.5C16.835 18.4419 16.1606 17.5483 15.21 17.2148V14.625H26.6357V17.2148C25.6618 17.5349 24.96 18.4252 24.96 19.5C24.96 20.8366 26.0609 21.9375 27.3975 21.9375C28.734 21.9375 29.835 20.8366 29.835 19.5C29.835 18.4586 29.1882 17.5608 28.2607 17.2148V14.625H33.8975C34.3616 14.625 34.71 14.9734 34.71 15.4375V27.625H14.3975C14.182 27.625 13.9753 27.7106 13.823 27.863C13.6706 28.0154 13.585 28.222 13.585 28.4375V48.75H7.89746C7.78142 48.75 7.6907 48.7391 7.59277 48.6992C7.29898 48.5795 7.08496 48.2857 7.08496 47.9375V40.8789V28.6914V23.5625V15.4375C7.08496 15.3215 7.09583 15.2307 7.13574 15.1328C7.25547 14.839 7.54933 14.625 7.89746 14.625ZM2.20996 17.875C2.23128 17.8857 2.23914 17.9155 2.26074 17.9258C3.24847 18.3946 4.42145 18.3946 5.40918 17.9258C5.43078 17.9156 5.43865 17.8856 5.45996 17.875V23.5625V28.6914V28.9453V40.8789V41.0312V47.9375C5.45996 48.2159 5.52455 48.4998 5.61231 48.75H3.02246C2.55828 48.75 2.20996 48.4018 2.20996 47.9375V42.25V30.0117V23.5625V17.875ZM14.3975 18.6875C14.8558 18.6875 15.21 19.0417 15.21 19.5C15.21 19.9584 14.8558 20.3125 14.3975 20.3125C13.9391 20.3125 13.585 19.9584 13.585 19.5C13.585 19.0417 13.9391 18.6875 14.3975 18.6875ZM27.3975 18.6875C27.8558 18.6875 28.21 19.0417 28.21 19.5C28.21 19.9584 27.8558 20.3125 27.3975 20.3125C26.9391 20.3125 26.585 19.9584 26.585 19.5C26.585 19.0417 26.9391 18.6875 27.3975 18.6875ZM15.21 29.25H47.71V48.75H33.8975H15.21V29.25ZM25.7725 30.875C24.4359 30.875 23.335 31.9759 23.335 33.3125C23.335 34.3539 23.9817 35.2517 24.9092 35.5977V38.1875C24.9092 42.2261 28.1676 45.5 32.2217 45.5C36.2757 45.5 39.585 42.2261 39.585 38.1875V35.5977C40.5356 35.2642 41.21 34.3706 41.21 33.3125C41.21 31.9759 40.109 30.875 38.7725 30.875C37.4359 30.875 36.335 31.9759 36.335 33.3125C36.335 34.3706 37.0093 35.2642 37.96 35.5977V38.1875C37.96 41.3489 35.4085 43.875 32.2217 43.875C29.0349 43.875 26.5342 41.3489 26.5342 38.1875V35.5977C27.5081 35.2776 28.21 34.3873 28.21 33.3125C28.21 31.9759 27.109 30.875 25.7725 30.875ZM25.7725 32.5C26.2308 32.5 26.585 32.8542 26.585 33.3125C26.585 33.7709 26.2308 34.125 25.7725 34.125C25.3141 34.125 24.96 33.7709 24.96 33.3125C24.96 32.8542 25.3141 32.5 25.7725 32.5ZM38.7725 32.5C39.2308 32.5 39.585 32.8542 39.585 33.3125C39.585 33.7709 39.2308 34.125 38.7725 34.125C38.3141 34.125 37.96 33.7709 37.96 33.3125C37.96 32.8542 38.3141 32.5 38.7725 32.5Z" fill="white"/>
</svg>
