<svg width="58" height="58" viewBox="0 0 58 58" fill="none" xmlns="http://www.w3.org/2000/svg">
<path d="M29.0002 31.4163H29.0016C29.6685 31.4159 30.2089 30.875 30.2085 30.208V20.5413C30.2085 19.874 29.6675 19.333 29.0002 19.333C28.3329 19.333 27.7918 19.874 27.7918 20.5413V30.2093C27.7923 30.8763 28.3332 31.4168 29.0002 31.4163ZM52.8128 18.6368L39.363 5.18701C39.1365 4.9603 38.8292 4.83301 38.5087 4.83301H19.4916C19.1711 4.83301 18.8639 4.9603 18.6373 5.18701L5.1875 18.6368C4.96079 18.8634 4.8335 19.1706 4.8335 19.4911V38.5082C4.8335 38.8287 4.96079 39.136 5.1875 39.3625L18.6373 52.8123C18.8639 53.0391 19.1711 53.1663 19.4916 53.1663H38.5087C38.8292 53.1663 39.1365 53.0391 39.363 52.8123L52.8128 39.3625C53.0395 39.136 53.1668 38.8287 53.1668 38.5082V19.4911C53.1668 19.1706 53.0395 18.8634 52.8128 18.6368ZM50.7502 38.0079L38.0084 50.7497H19.9919L7.25016 38.0079V19.9915L19.9919 7.24967H38.0084L50.7502 19.9915V38.0079ZM29.0002 34.7393C28.166 34.7393 27.4897 35.4156 27.4897 36.2497C27.4897 37.0838 28.166 37.7601 29.0002 37.7601C29.8343 37.7601 30.5106 37.0838 30.5106 36.2497C30.5106 35.4156 29.8343 34.7393 29.0002 34.7393Z" fill="white"/>
</svg>
