<svg width="54" height="54" viewBox="0 0 54 54" fill="none" xmlns="http://www.w3.org/2000/svg">
<path d="M16.0938 19.875C16.0938 19.4093 15.7157 19.0312 15.25 19.0312H8.5C8.03425 19.0312 7.65625 19.4093 7.65625 19.875C7.65625 20.3407 8.03425 20.7188 8.5 20.7188H15.25C15.7157 20.7188 16.0938 20.3407 16.0938 19.875ZM14.4062 35.0625V31.6875C14.4062 30.2919 13.2706 29.1562 11.875 29.1562C10.4794 29.1562 9.34375 30.2919 9.34375 31.6875V35.0625C9.34375 36.4581 10.4794 37.5938 11.875 37.5938C13.2706 37.5938 14.4062 36.4581 14.4062 35.0625ZM11.875 30.8438C12.3399 30.8438 12.7188 31.2218 12.7188 31.6875V32.5312H11.0312V31.6875C11.0312 31.2218 11.4101 30.8438 11.875 30.8438ZM11.0312 35.0625V34.2188H12.7188V35.0625C12.7188 35.5282 12.3399 35.9062 11.875 35.9062C11.4101 35.9062 11.0312 35.5282 11.0312 35.0625ZM5.125 13.9688H18.625C19.0907 13.9688 19.4688 13.5908 19.4688 13.125V8.0625C19.4688 7.59675 19.0907 7.21875 18.625 7.21875H5.125C4.65925 7.21875 4.28125 7.59675 4.28125 8.0625V13.125C4.28125 13.5908 4.65925 13.9688 5.125 13.9688ZM5.96875 8.90625H7.65625V9.75C7.65625 10.2157 8.03425 10.5938 8.5 10.5938C8.96575 10.5938 9.34375 10.2157 9.34375 9.75V8.90625H11.0312V9.75C11.0312 10.2157 11.4092 10.5938 11.875 10.5938C12.3407 10.5938 12.7188 10.2157 12.7188 9.75V8.90625H14.4062V9.75C14.4062 10.2157 14.7843 10.5938 15.25 10.5938C15.7157 10.5938 16.0938 10.2157 16.0938 9.75V8.90625H17.7812V12.2812H5.96875V8.90625Z" fill="white"/>
<path d="M38.875 15.6562H38.0312V11.4375C38.0312 10.9718 37.6541 10.5938 37.1875 10.5938C36.7209 10.5938 36.3438 10.9718 36.3438 11.4375V15.6562H34.6562V11.4375C34.6562 10.9718 34.2791 10.5938 33.8125 10.5938C33.3459 10.5938 32.9688 10.9718 32.9688 11.4375V15.6562H32.125C31.6584 15.6562 31.2812 16.0342 31.2812 16.5V21.5625C31.2812 23.6002 32.7333 25.3037 34.6562 25.696V41.8125C34.6562 46.9298 30.4923 51.0938 25.375 51.0938H20.3125C16.3916 51.0938 13.1558 48.106 12.7601 44.2881C16.5308 43.8476 19.4688 40.6372 19.4688 36.75V16.5C19.4688 16.0342 19.0907 15.6562 18.625 15.6562H5.125C4.65925 15.6562 4.28125 16.0342 4.28125 16.5V36.75C4.28125 40.6667 7.26138 43.8974 11.0718 44.2999C11.4793 49.0434 15.4652 52.7812 20.3125 52.7812H25.375C31.423 52.7812 36.3438 47.8605 36.3438 41.8125V25.696C38.2667 25.3037 39.7188 23.6002 39.7188 21.5625V16.5C39.7188 16.0342 39.3416 15.6562 38.875 15.6562ZM5.96875 36.75V17.3438H17.7812V36.75C17.7812 40.006 15.1319 42.6562 11.875 42.6562C8.61812 42.6562 5.96875 40.006 5.96875 36.75ZM38.0312 21.5625C38.0312 22.9581 36.8956 24.0938 35.5 24.0938C34.1044 24.0938 32.9688 22.9581 32.9688 21.5625V17.3438H38.0312V21.5625Z" fill="white"/>
</svg>
