<svg width="45" height="45" viewBox="0 0 45 45" fill="none" xmlns="http://www.w3.org/2000/svg">
<path d="M42.8907 24.2578H40.0782V15.1171C40.0782 14.7288 39.7638 14.414 39.3751 14.414H36.593C36.5066 13.7405 36.3764 13.0811 36.163 12.4492C34.9692 8.91403 32.1715 7.23557 31.4189 6.83834C30.8635 6.06934 30.1832 5.43021 29.3714 4.9335C25.178 2.36712 19.1452 4.4689 18.7642 4.6055C17.5688 3.24165 15.6307 2.66234 13.3609 3.07304C9.55822 3.76071 5.62511 7.13866 5.62511 11.6015C5.62511 21.4858 3.5535 24.392 1.61167 26.34C1.38714 26.5649 1.34182 26.912 1.49975 27.187C1.62746 27.4088 1.8623 27.5396 2.10949 27.5396C2.16854 27.5396 2.22896 27.532 2.28802 27.5166C2.49577 27.4619 5.87475 26.5358 8.26127 23.8379C7.96305 25.3087 7.59351 26.7175 7.08698 27.988C6.96888 28.2843 7.06501 28.6231 7.32113 28.813C7.44541 28.9057 7.59304 28.9517 7.73998 28.9517C7.89516 28.9517 8.05034 28.9005 8.17806 28.7986C9.48174 27.7595 10.456 26.4763 11.2144 25.0582C11.3865 26.9196 11.9244 28.9582 13.3746 29.8666C13.8731 30.1791 14.4348 30.3353 15.0569 30.3353C15.7919 30.3353 16.6124 30.1128 17.5111 29.6779C16.9285 33.024 17.3886 36.4333 19.8634 39.4677C19.8653 39.47 19.8682 39.4707 19.8702 39.4729C19.9307 39.5455 20.0058 39.5998 20.0876 39.6422C20.1069 39.6522 20.1254 39.6603 20.1454 39.6685C20.2294 39.7027 20.3173 39.7269 20.4093 39.7269C20.4119 39.7269 20.4145 39.7252 20.417 39.7252C20.5028 39.7242 20.5874 39.7042 20.669 39.6713C20.6771 39.6681 20.6856 39.6697 20.6935 39.6661C20.716 39.6561 20.7304 39.6372 20.7513 39.6252C20.7852 39.606 20.8216 39.5937 20.8528 39.5682C20.8653 39.5581 20.8706 39.5433 20.8822 39.5325C20.9187 39.4985 20.9464 39.4603 20.9746 39.4199C20.9994 39.3844 21.0245 39.3511 21.0421 39.3123C21.061 39.2708 21.0704 39.2281 21.081 39.1837C21.0914 39.1398 21.1023 39.0979 21.1042 39.0528C21.1061 39.0101 21.0988 38.9688 21.0927 38.9257C21.0859 38.8769 21.0784 38.8302 21.0612 38.7832C21.0558 38.7685 21.0577 38.753 21.0513 38.7384C19.5953 35.4519 19.8008 33.4179 21.4405 30.5631C21.1864 32.826 21.5062 35.6387 23.3241 38.678C23.329 38.6862 23.3363 38.692 23.3415 38.6999C23.3549 38.7204 23.371 38.7375 23.3864 38.7563C23.4161 38.7929 23.4474 38.8265 23.4829 38.8557C23.5018 38.8713 23.5207 38.8851 23.541 38.8986C23.5801 38.9245 23.6208 38.9453 23.6638 38.9628C23.6849 38.9715 23.7047 38.9812 23.7265 38.9878C23.7871 39.006 23.8493 39.0169 23.9128 39.0183C23.9177 39.0184 23.9221 39.0206 23.927 39.0206C23.9338 39.0206 23.9408 39.0179 23.9477 39.0177C24.0043 39.0161 24.061 39.0095 24.1166 38.994C24.1177 38.9937 24.1188 38.9938 24.1199 38.9935C24.1237 38.9925 24.1263 38.9894 24.1301 38.9882C24.1843 38.9719 24.2379 38.9511 24.2888 38.9207C24.3036 38.9119 24.3115 38.8971 24.3254 38.8874C24.3649 38.8598 24.3968 38.8272 24.4294 38.7927C24.4602 38.76 24.4906 38.7292 24.5143 38.692C24.5384 38.6542 24.5538 38.614 24.5704 38.5722C24.5871 38.5301 24.6036 38.4899 24.6119 38.4454C24.6201 38.4026 24.619 38.36 24.619 38.3156C24.619 38.2673 24.6179 38.221 24.6078 38.1731C24.6044 38.1568 24.6086 38.1409 24.604 38.1246C23.7607 35.1632 24.4237 32.5694 25.6788 30.056C25.8117 32.6037 27.0417 34.793 28.1251 36.2484V41.8359C28.1251 42.2242 28.4396 42.539 28.8282 42.539H42.8907C43.2794 42.539 43.5939 42.2242 43.5939 41.8359V24.9609C43.5939 24.5726 43.2794 24.2578 42.8907 24.2578ZM38.672 15.8203V24.2578H34.171C34.2493 24.1095 34.3202 23.9748 34.4024 23.8197C35.932 20.9318 36.6809 18.2585 36.6818 15.8203H38.672ZM4.43722 25.0711C5.87505 22.7564 7.03136 19.0163 7.03136 11.6015C7.03136 7.87406 10.3767 5.04165 13.6108 4.45697C14.1145 4.36569 14.5871 4.3432 15.0338 4.36616C14.316 4.64773 13.5927 5.14211 12.8727 5.86459C10.3966 8.34888 9.79854 13.0067 9.16546 17.9379C9.09259 18.5062 9.01791 19.0773 8.94131 19.6483C8.23123 22.3954 6.15091 24.1003 4.43722 25.0711ZM10.3202 19.9576C10.4185 19.5609 10.4946 19.1458 10.5429 18.71C10.5533 18.6159 10.5433 18.5245 10.5186 18.4388C10.5324 18.3317 10.547 18.2237 10.5607 18.1168C11.1622 13.4297 11.7301 9.00256 13.8683 6.85748C14.7705 5.95248 15.6186 5.49518 16.3938 5.49518C16.4693 5.49518 16.5448 5.4993 16.619 5.50823C16.9651 5.54874 17.2686 5.68298 17.5226 5.84777C14.1821 6.77886 13.3979 10.9966 12.5733 15.4309C11.9388 18.8449 11.2384 22.6091 9.35222 25.4381C9.77975 23.6819 10.0686 21.8207 10.3202 19.9576ZM18.7679 33.5942C17.9211 27.3408 22.8082 20.4809 25.728 16.3843L25.9079 16.1317C28.1347 13.0047 27.1631 9.70603 25.3181 7.96436C23.5768 6.31984 21.258 6.13719 19.5475 7.50945C19.2447 7.75253 19.196 8.19507 19.439 8.49788C19.6828 8.80035 20.1243 8.8491 20.4278 8.60603C21.8313 7.47993 23.4209 8.10683 24.3527 8.98711C25.7692 10.3237 26.5012 12.8746 24.7626 15.3159L24.5827 15.5679C22.5532 18.4157 19.3124 22.9687 17.9373 27.8328C17.9314 27.8363 17.9246 27.8363 17.9188 27.84C16.2338 28.9153 14.9553 29.1975 14.1217 28.6753C12.3618 27.5739 12.4641 23.1416 12.6516 21.5266C12.6527 21.5167 12.6484 21.5078 12.6492 21.4979C13.2275 19.5827 13.6029 17.5849 13.9555 15.6881C14.9498 10.3412 15.7257 7.06416 19.001 7.06416C19.0789 7.06416 19.1532 7.04738 19.2248 7.02318C19.2323 7.02065 19.24 7.02232 19.2475 7.01953C19.2584 7.01541 19.2654 7.00631 19.2761 7.00172C19.3442 6.9725 19.407 6.93439 19.4628 6.88529C19.4713 6.87787 19.4812 6.87259 19.4893 6.86478C19.5368 6.81877 19.5792 6.76698 19.6128 6.70779C19.6195 6.69599 19.6217 6.68278 19.6277 6.67072C19.6362 6.65342 19.6418 6.636 19.6489 6.6181C19.6742 6.55446 19.69 6.48936 19.6959 6.42228C19.6973 6.40679 19.701 6.39237 19.7013 6.37675C19.7031 6.29495 19.6895 6.21427 19.6628 6.13586C19.6604 6.12891 19.662 6.12179 19.6595 6.11488C19.6374 6.056 19.6104 6.00137 19.5866 5.94394C23.4822 5.77391 26.8225 7.30191 28.3902 10.0088C30.0251 12.8323 29.4847 16.4753 26.8679 20.267C25.7212 21.9287 24.6775 23.3761 23.7567 24.6533C23.6283 24.8313 23.51 24.9962 23.3858 25.1685C23.3796 25.1761 23.3705 25.1795 23.3646 25.1875C23.3601 25.1934 23.3124 25.2592 23.2362 25.3765C20.7635 28.8131 19.173 31.1544 18.7679 33.5942ZM22.9388 33.893C22.1806 29.957 23.833 27.0304 24.349 26.2371C24.5289 25.987 24.7065 25.74 24.8972 25.4755C25.8221 24.1929 26.8706 22.7393 28.0255 21.0656C30.9685 16.8011 31.5302 12.6243 29.6069 9.30434C28.4385 7.28612 26.4563 5.82743 24.0293 5.08263C25.5818 5.04989 27.2575 5.28713 28.6415 6.13548C30.3347 7.173 31.3551 9.00291 31.6758 11.5744C32.3384 16.8911 29.6962 20.954 27.1411 24.883C27.0929 24.9572 27.0446 25.0319 26.9963 25.1063C26.9211 25.1635 26.8554 25.2354 26.8068 25.3234C26.7422 25.44 26.6881 25.5557 26.6297 25.6717C24.9635 28.2537 23.3745 30.9156 22.9388 33.893ZM27.8756 26.3347C28.0229 26.1068 28.1712 25.8786 28.3201 25.6496C31.0125 21.5088 33.7968 17.2272 33.071 11.4007C32.9873 10.7292 32.8537 10.1063 32.6845 9.51888C33.4837 10.3007 34.3278 11.4093 34.8309 12.8989C35.8032 15.7791 35.2408 19.2319 33.1596 23.1612C29.4723 30.1238 29.4771 30.51 29.5396 35.2417C29.5417 35.4295 29.5444 35.6242 29.5472 35.8271C28.0401 33.9865 25.8758 30.3467 27.8756 26.3347ZM42.1876 41.1328H29.5314V37.8843C29.6904 38.0426 29.7899 38.1324 29.7978 38.1393C29.9282 38.2543 30.0944 38.3144 30.262 38.3144C30.3601 38.3144 30.459 38.2938 30.5517 38.2519C30.803 38.1383 30.9651 37.8877 30.9651 37.6113C30.9651 36.6964 30.9548 35.9122 30.9459 35.2232C30.8917 31.1148 30.8924 30.5334 33.4319 25.664H39.3751H42.1876V41.1328Z" fill="white"/>
<path d="M38.6719 28.4766H33.0469C32.6582 28.4766 32.3438 28.7914 32.3438 29.1797V37.6172C32.3438 38.0055 32.6582 38.3203 33.0469 38.3203H38.6719C39.0605 38.3203 39.375 38.0055 39.375 37.6172V29.1797C39.375 28.7914 39.0605 28.4766 38.6719 28.4766ZM37.9688 36.9141H33.75V29.8828H37.9688V36.9141ZM9.84375 36.2109H9.14062V35.5078C9.14062 35.1195 8.82614 34.8047 8.4375 34.8047C8.04886 34.8047 7.73438 35.1195 7.73438 35.5078V36.2109H7.03125C6.64261 36.2109 6.32812 36.5258 6.32812 36.9141C6.32812 37.3024 6.64261 37.6172 7.03125 37.6172H7.73438V38.3203C7.73438 38.7086 8.04886 39.0234 8.4375 39.0234C8.82614 39.0234 9.14062 38.7086 9.14062 38.3203V37.6172H9.84375C10.2324 37.6172 10.5469 37.3024 10.5469 36.9141C10.5469 36.5258 10.2324 36.2109 9.84375 36.2109ZM4.21875 5.27344H4.92188V5.97656C4.92188 6.36486 5.23636 6.67969 5.625 6.67969C6.01364 6.67969 6.32812 6.36486 6.32812 5.97656V5.27344H7.03125C7.41989 5.27344 7.73438 4.95861 7.73438 4.57031C7.73438 4.18201 7.41989 3.86719 7.03125 3.86719H6.32812V3.16406C6.32812 2.77576 6.01364 2.46094 5.625 2.46094C5.23636 2.46094 4.92188 2.77576 4.92188 3.16406V3.86719H4.21875C3.83011 3.86719 3.51562 4.18201 3.51562 4.57031C3.51562 4.95861 3.83011 5.27344 4.21875 5.27344ZM37.9688 9.49219H38.6719V10.1953C38.6719 10.5836 38.9864 10.8984 39.375 10.8984C39.7636 10.8984 40.0781 10.5836 40.0781 10.1953V9.49219H40.7812C41.1699 9.49219 41.4844 9.17736 41.4844 8.78906C41.4844 8.40076 41.1699 8.08594 40.7812 8.08594H40.0781V7.38281C40.0781 6.99451 39.7636 6.67969 39.375 6.67969C38.9864 6.67969 38.6719 6.99451 38.6719 7.38281V8.08594H37.9688C37.5801 8.08594 37.2656 8.40076 37.2656 8.78906C37.2656 9.17736 37.5801 9.49219 37.9688 9.49219Z" fill="white"/>
</svg>
