<svg width="40" height="40" viewBox="0 0 40 40" fill="none" xmlns="http://www.w3.org/2000/svg">
<g clip-path="url(#clip0_419_7064)">
<path d="M39.3092 15.3647H38.6132C38.2795 11.6183 35.1561 8.70638 31.3191 8.70638V8.04058H32.6508C33.0503 8.04058 33.3166 7.77427 33.3166 7.37478V3.37967C33.3166 2.98017 33.0503 2.71387 32.6508 2.71387H28.6557C28.2562 2.71387 27.9899 2.98017 27.9899 3.37967V7.3747C27.9899 7.7742 28.2562 8.0405 28.6557 8.0405H29.9874V8.7063C26.1504 8.7063 23.027 11.6182 22.6933 15.3646H21.9973C21.5978 15.3646 21.3315 15.6309 21.3315 16.0304V21.3571V34.6738V39.3347C21.3315 39.7341 21.5978 40.0005 21.9973 40.0005H39.309C39.7085 40.0005 39.9748 39.7341 39.9748 39.3347V16.0305C39.975 15.631 39.7087 15.3647 39.3092 15.3647ZM29.3216 6.04294H29.9874C30.3869 6.04294 30.6532 5.77664 30.6532 5.37714C30.6532 4.97765 30.3869 4.71134 29.9874 4.71134H29.3216V4.04547H31.985V6.70882H29.3216V6.04294ZM30.054 10.038H31.3857C34.4486 10.038 36.9787 12.3684 37.3117 15.3647H24.0615C24.3945 12.3684 26.9246 10.038 30.054 10.038ZM22.6633 32.0105H29.3216C29.7211 32.0105 29.9874 31.7442 29.9874 31.3447C29.9874 30.9452 29.7211 30.6789 29.3216 30.6789H22.6633V28.6815H27.99C28.3895 28.6815 28.6558 28.4152 28.6558 28.0157C28.6558 27.6162 28.3895 27.3499 27.99 27.3499H22.6633V25.3524H25.9925C26.392 25.3524 26.6583 25.0861 26.6583 24.6866C26.6583 24.2871 26.392 24.0208 25.9925 24.0208H22.6633V22.0233H31.985V34.0083H22.6633V32.0105ZM38.6433 38.6689H22.6633V35.3397H32.6508C33.0503 35.3397 33.3166 35.0734 33.3166 34.6739V21.3572C33.3166 20.9577 33.0503 20.6914 32.6508 20.6914H22.6633V16.6964H38.6434V38.6689H38.6433Z" fill="white"/>
<path d="M22.6634 6.04254H23.3292C23.7286 6.04254 23.995 5.77623 23.995 5.37674C23.995 4.97724 23.7286 4.71094 23.3292 4.71094H22.6634C22.2639 4.71094 21.9976 4.97724 21.9976 5.37674C21.9976 5.77623 22.2639 6.04254 22.6634 6.04254Z" fill="white"/>
<path d="M14.6731 6.04254H15.3389C15.7384 6.04254 16.0047 5.77623 16.0047 5.37674C16.0047 4.97724 15.7384 4.71094 15.3389 4.71094H14.6731C14.2736 4.71094 14.0073 4.97724 14.0073 5.37674C14.0073 5.77623 14.2735 6.04254 14.6731 6.04254Z" fill="white"/>
<path d="M17.3367 6.04254H18.0025C18.402 6.04254 18.6683 5.77623 18.6683 5.37674C18.6683 4.97724 18.402 4.71094 18.0025 4.71094H17.3367C16.9372 4.71094 16.6709 4.97724 16.6709 5.37674C16.6709 5.77623 16.9372 6.04254 17.3367 6.04254Z" fill="white"/>
<path d="M20.6656 6.04254C21.0651 6.04254 21.3314 5.77623 21.3314 5.37674C21.3314 4.97724 21.0651 4.71094 20.6656 4.71094H19.9998C19.6003 4.71094 19.334 4.97724 19.334 5.37674C19.334 5.77623 19.6003 6.04254 19.9998 6.04254H20.6656Z" fill="white"/>
<path d="M25.3269 6.04254H25.9927C26.3922 6.04254 26.6585 5.77623 26.6585 5.37674C26.6585 4.97724 26.3922 4.71094 25.9927 4.71094H25.3269C24.9274 4.71094 24.6611 4.97724 24.6611 5.37674C24.6611 5.77623 24.9274 6.04254 25.3269 6.04254Z" fill="white"/>
<path d="M22.6634 2.9797L23.2626 3.17945C23.3292 3.246 23.3958 3.246 23.4624 3.246C23.7287 3.246 23.9951 3.04625 24.1282 2.77995C24.1947 2.38046 23.995 2.04752 23.7287 1.91432L23.1294 1.71458C22.7299 1.58138 22.397 1.78113 22.2639 2.11407C22.1307 2.51357 22.3304 2.84651 22.6634 2.9797Z" fill="white"/>
<path d="M25.1937 3.77845L25.7929 3.9782C25.8595 4.04475 25.9261 4.04475 25.9926 4.04475C26.259 4.04475 26.5253 3.91156 26.5919 3.64526C26.7251 3.24576 26.5253 2.91282 26.1924 2.77971L25.6597 2.5134C25.2602 2.38021 24.9273 2.57996 24.7942 2.9129C24.661 3.31232 24.8607 3.64526 25.1937 3.77845Z" fill="white"/>
<path d="M18.6681 0.18314L18.2686 0.0499481C17.8691 -0.0832435 17.5362 0.0499481 17.4031 0.449443C17.2699 0.848939 17.4696 1.18188 17.8025 1.31499L18.202 1.44818C18.2686 1.51474 18.3352 1.51474 18.4018 1.51474C18.6681 1.51474 18.9345 1.38155 19.0676 1.04869C19.2008 0.649271 19.001 0.316331 18.6681 0.18314Z" fill="white"/>
<path d="M20.0667 2.11438L20.7325 2.31413C20.799 2.38069 20.8657 2.38069 20.9322 2.38069C21.1985 2.38069 21.4649 2.18094 21.5315 1.91464C21.6646 1.51514 21.4649 1.1822 21.132 1.04909L20.5327 0.849342C20.1332 0.71615 19.8003 0.915898 19.6672 1.24884C19.5341 1.64833 19.7338 1.98119 20.0667 2.11438Z" fill="white"/>
<path d="M21.5979 8.83868C21.4647 8.50574 21.0652 8.30599 20.7324 8.43919L20.1331 8.63893C19.8002 8.77213 19.6004 9.17162 19.7336 9.50448C19.8002 9.77079 20.0666 9.97053 20.3329 9.97053C20.3994 9.97053 20.4661 9.90398 20.5992 9.90398L21.1984 9.70423C21.5313 9.57112 21.7311 9.17162 21.5979 8.83868Z" fill="white"/>
<path d="M18.202 9.23801L17.8025 9.37121C17.4696 9.5044 17.2699 9.90389 17.4031 10.2368C17.4696 10.5031 17.736 10.7028 18.0023 10.7028C18.0689 10.7028 18.1355 10.7028 18.2686 10.6362L18.6681 10.5031C19.001 10.3699 19.2008 9.97037 19.0676 9.63751C18.9345 9.30457 18.5349 9.10482 18.202 9.23801Z" fill="white"/>
<path d="M23.2626 7.57391L22.6634 7.77366C22.3304 7.90685 22.1307 8.30635 22.2639 8.63921C22.3304 8.90551 22.5968 9.10526 22.8631 9.10526C22.9297 9.10526 22.9963 9.10526 23.1294 9.0387L23.7287 8.83895C24.0616 8.70576 24.2614 8.30627 24.1282 7.97341C23.995 7.64055 23.5956 7.4408 23.2626 7.57391Z" fill="white"/>
<path d="M25.7929 6.70871L25.1937 6.90846C24.8607 7.04165 24.661 7.44114 24.7942 7.774C24.8607 8.0403 25.1271 8.24005 25.3934 8.24005C25.46 8.24005 25.5266 8.24005 25.6597 8.1735L26.259 7.97375C26.5919 7.84056 26.7916 7.44106 26.6585 7.1082C26.5253 6.77534 26.1258 6.57552 25.7929 6.70871Z" fill="white"/>
<path d="M13.0753 24.0869H5.55136C2.48851 24.0869 0.0249023 26.5505 0.0249023 29.6134V40.0004H18.6017V29.6133C18.6018 26.5505 16.1382 24.0869 13.0753 24.0869ZM17.3366 38.6687H1.35666V29.6133C1.35666 27.2829 3.22103 25.4185 5.55144 25.4185H13.1419C15.4724 25.4185 17.3367 27.2829 17.3367 29.6133V38.6687H17.3366Z" fill="white"/>
</g>
<defs>
<clipPath id="clip0_419_7064">
<rect width="40" height="40" fill="white"/>
</clipPath>
</defs>
</svg>
