<svg width="56" height="56" viewBox="0 0 56 56" fill="none" xmlns="http://www.w3.org/2000/svg">
<path d="M19.25 39.9V40.25C19.25 40.075 19.25 40.075 19.25 39.9ZM36.75 40.25V39.9C36.75 40.075 36.75 40.075 36.75 40.25ZM36.75 15.75C36.75 15.925 36.75 15.925 36.75 16.1V15.75ZM19.25 15.75V16.1C19.25 15.925 19.25 15.925 19.25 15.75ZM19.25 15.75C19.25 15.925 19.25 15.925 19.25 16.1V15.75ZM36.75 15.75V16.1C36.75 15.925 36.75 15.925 36.75 15.75ZM19.25 40.25V39.9C19.25 40.075 19.25 40.075 19.25 40.25ZM36.75 39.9V40.25C36.75 40.075 36.75 40.075 36.75 39.9Z" fill="white"/>
<path d="M35.875 44.625C35.7 46.025 35.175 47.425 34.3 48.65M25.375 4.9C26.25 4.55 27.125 4.375 28 4.375C32.025 4.375 35.35 7.525 35.875 11.375L25.375 4.9ZM20.125 11.375C20.3 9.45 21.35 7.7 22.75 6.475L20.125 11.375ZM32.375 50.225C31.15 51.1 29.575 51.625 28 51.625C23.975 51.625 20.65 48.475 20.125 44.625L32.375 50.225Z" stroke="white" stroke-miterlimit="10" stroke-linecap="round"/>
<path d="M35.875 14.875H20.125V41.125H35.875V14.875Z" stroke="white" stroke-miterlimit="10"/>
<path d="M22.75 44.625H16.625C15.75 44.625 14.875 43.75 14.875 42.875C14.875 42 15.75 41.125 16.625 41.125H39.375C40.25 41.125 41.125 42 41.125 42.875C41.125 43.75 40.25 44.625 39.375 44.625H28M33.25 11.375H39.375C40.25 11.375 41.125 12.25 41.125 13.125C41.125 14 40.25 14.875 39.375 14.875H16.625C15.75 14.875 14.875 14 14.875 13.125C14.875 12.25 15.75 11.375 16.625 11.375H28H33.25Z" stroke="white" stroke-miterlimit="10" stroke-linecap="round"/>
<path d="M35.875 21.875L20.125 37.625" stroke="white" stroke-miterlimit="10"/>
<path d="M35.875 28.875L23.625 41.125" stroke="white" stroke-miterlimit="10"/>
<path d="M35.875 35.875L30.625 41.125" stroke="white" stroke-miterlimit="10"/>
<path d="M35.875 14.875L20.125 30.625" stroke="white" stroke-miterlimit="10"/>
<path d="M28.875 14.875L20.125 23.625" stroke="white" stroke-miterlimit="10"/>
<path d="M23.625 31.5C24.1082 31.5 24.5 31.1082 24.5 30.625C24.5 30.1418 24.1082 29.75 23.625 29.75C23.1418 29.75 22.75 30.1418 22.75 30.625C22.75 31.1082 23.1418 31.5 23.625 31.5Z" fill="white"/>
<path d="M30.625 12.25C31.1082 12.25 31.5 11.8582 31.5 11.375C31.5 10.8918 31.1082 10.5 30.625 10.5C30.1418 10.5 29.75 10.8918 29.75 11.375C29.75 11.8582 30.1418 12.25 30.625 12.25Z" fill="white"/>
<path d="M21.875 19.25C22.3582 19.25 22.75 18.8582 22.75 18.375C22.75 17.8918 22.3582 17.5 21.875 17.5C21.3918 17.5 21 17.8918 21 18.375C21 18.8582 21.3918 19.25 21.875 19.25Z" fill="white"/>
<path d="M23.625 17.5C24.1082 17.5 24.5 17.1082 24.5 16.625C24.5 16.1418 24.1082 15.75 23.625 15.75C23.1418 15.75 22.75 16.1418 22.75 16.625C22.75 17.1082 23.1418 17.5 23.625 17.5Z" fill="white"/>
<path d="M21.875 33.25C22.3582 33.25 22.75 32.8582 22.75 32.375C22.75 31.8918 22.3582 31.5 21.875 31.5C21.3918 31.5 21 31.8918 21 32.375C21 32.8582 21.3918 33.25 21.875 33.25Z" fill="white"/>
<path d="M28.875 40.25C29.3582 40.25 29.75 39.8582 29.75 39.375C29.75 38.8918 29.3582 38.5 28.875 38.5C28.3918 38.5 28 38.8918 28 39.375C28 39.8582 28.3918 40.25 28.875 40.25Z" fill="white"/>
<path d="M25.375 45.5C25.8582 45.5 26.25 45.1082 26.25 44.625C26.25 44.1418 25.8582 43.75 25.375 43.75C24.8918 43.75 24.5 44.1418 24.5 44.625C24.5 45.1082 24.8918 45.5 25.375 45.5Z" fill="white"/>
<path d="M30.625 38.5C31.1082 38.5 31.5 38.1082 31.5 37.625C31.5 37.1418 31.1082 36.75 30.625 36.75C30.1418 36.75 29.75 37.1418 29.75 37.625C29.75 38.1082 30.1418 38.5 30.625 38.5Z" fill="white"/>
<path d="M32.375 36.75C32.8582 36.75 33.25 36.3582 33.25 35.875C33.25 35.3918 32.8582 35 32.375 35C31.8918 35 31.5 35.3918 31.5 35.875C31.5 36.3582 31.8918 36.75 32.375 36.75Z" fill="white"/>
<path d="M34.125 35C34.6082 35 35 34.6082 35 34.125C35 33.6418 34.6082 33.25 34.125 33.25C33.6418 33.25 33.25 33.6418 33.25 34.125C33.25 34.6082 33.6418 35 34.125 35Z" fill="white"/>
<path d="M25.375 29.75C25.8582 29.75 26.25 29.3582 26.25 28.875C26.25 28.3918 25.8582 28 25.375 28C24.8918 28 24.5 28.3918 24.5 28.875C24.5 29.3582 24.8918 29.75 25.375 29.75Z" fill="white"/>
<path d="M27.125 28C27.6082 28 28 27.6082 28 27.125C28 26.6418 27.6082 26.25 27.125 26.25C26.6418 26.25 26.25 26.6418 26.25 27.125C26.25 27.6082 26.6418 28 27.125 28Z" fill="white"/>
<path d="M28.875 26.25C29.3582 26.25 29.75 25.8582 29.75 25.375C29.75 24.8918 29.3582 24.5 28.875 24.5C28.3918 24.5 28 24.8918 28 25.375C28 25.8582 28.3918 26.25 28.875 26.25Z" fill="white"/>
<path d="M30.625 24.5C31.1082 24.5 31.5 24.1082 31.5 23.625C31.5 23.1418 31.1082 22.75 30.625 22.75C30.1418 22.75 29.75 23.1418 29.75 23.625C29.75 24.1082 30.1418 24.5 30.625 24.5Z" fill="white"/>
<path d="M32.375 22.75C32.8582 22.75 33.25 22.3582 33.25 21.875C33.25 21.3918 32.8582 21 32.375 21C31.8918 21 31.5 21.3918 31.5 21.875C31.5 22.3582 31.8918 22.75 32.375 22.75Z" fill="white"/>
<path d="M34.125 21C34.6082 21 35 20.6082 35 20.125C35 19.6418 34.6082 19.25 34.125 19.25C33.6418 19.25 33.25 19.6418 33.25 20.125C33.25 20.6082 33.6418 21 34.125 21Z" fill="white"/>
</svg>
