<svg width="24" height="22" viewBox="0 0 24 22" fill="none" xmlns="http://www.w3.org/2000/svg">
<path d="M23.2763 12.747V10.6386C23.2763 9.86205 22.6373 9.19855 21.8362 9.19855L19.9244 9.03145L18.2337 6.4807C18.2042 6.45121 18.2042 6.42664 18.1797 6.39715C17.929 6.03837 17.4867 5.78772 17.0149 5.78772H13.4124H6.56611C5.84364 5.78772 5.23421 6.34309 5.15066 7.03607H0.57994C0.275226 7.03607 0 7.28672 0 7.61601C0 7.92072 0.250652 8.19595 0.57994 8.19595H5.81906C5.84855 8.19595 5.87313 8.19595 5.90261 8.19595C6.17784 8.22544 6.399 8.47117 6.399 8.75131C6.399 9.05603 6.14835 9.33125 5.81906 9.33125H5.12608H1.9659C1.66119 9.33125 1.38596 9.58191 1.38596 9.91119C1.38596 10.2159 1.63661 10.4911 1.9659 10.4911H5.12608H7.70141C8.00613 10.4911 8.28135 10.7418 8.28135 11.0711C8.28135 11.3758 8.0307 11.651 7.70141 11.651H5.12608H3.62709C3.32237 11.651 3.04714 11.9017 3.04714 12.231C3.04714 12.5357 3.2978 12.8109 3.62709 12.8109H5.12117C4.76239 12.8944 4.51174 13.2286 4.51174 13.6169V14.6687C4.51174 15.111 4.87052 15.4993 5.34233 15.4993H6.50713C6.75778 16.4134 7.61786 17.1064 8.61556 17.1064C9.61325 17.1064 10.4733 16.4576 10.7191 15.5189H13.3779H17.9241C18.1747 16.4331 19.0348 17.126 20.0325 17.126C21.0302 17.126 21.8903 16.4626 22.1409 15.5189H23.1681C23.6105 15.5189 23.9987 15.1601 23.9987 14.6883V13.6366C24.0233 13.1353 23.6891 12.7716 23.2763 12.747ZM8.61556 15.9072C8.00613 15.9072 7.50482 15.4108 7.50482 14.7965C7.50482 14.1821 8.00121 13.6857 8.61556 13.6857C9.22499 13.6857 9.72629 14.1821 9.72629 14.7965C9.72629 15.4108 9.22499 15.9072 8.61556 15.9072ZM20.062 15.9072C19.4526 15.9072 18.9513 15.4108 18.9513 14.7965C18.9513 14.1821 19.4477 13.6857 20.062 13.6857C20.6714 13.6857 21.1727 14.1821 21.1727 14.7965C21.1727 15.4108 20.6714 15.9072 20.062 15.9072Z" fill="white"/>
<path d="M10.3214 19.7405L7.73128 18.2464C7.59858 18.1677 7.42657 18.266 7.42657 18.4233V19.2441H3.60289C2.56588 19.2441 1.72546 18.4036 1.72546 17.3666V15.3958H0.373901V17.3666C0.373901 19.1458 1.82375 20.5956 3.60289 20.5956H7.43148V21.4164C7.43148 21.5737 7.59858 21.672 7.7362 21.5933L10.3263 20.0992C10.459 20.0157 10.459 19.8191 10.3214 19.7405Z" fill="white"/>
<path d="M12.3415 2.25343L14.9315 3.74751C15.0642 3.82615 15.2363 3.72785 15.2363 3.57058V2.75473H19.0648C20.1019 2.75473 20.9423 3.59516 20.9423 4.63217V6.60298H22.2938V4.63217C22.2938 2.85303 20.844 1.40318 19.0648 1.40318H15.2363V0.582415C15.2363 0.425143 15.0692 0.326848 14.9315 0.405484L12.3415 1.89957C12.2088 1.9782 12.2088 2.17479 12.3415 2.25343Z" fill="white"/>
</svg>
