<svg width="22" height="22" viewBox="0 0 22 22" fill="none" xmlns="http://www.w3.org/2000/svg">
<path d="M6.63485 6.67505C6.61997 6.69785 6.60557 6.72117 6.59199 6.74481C6.56326 6.79484 6.53125 6.8582 6.50773 6.93002C6.48575 6.99713 6.45916 7.1073 6.47848 7.23644L6.47876 7.23829C6.49531 7.34617 6.5374 7.43654 6.58182 7.50686C6.53173 7.59389 6.49256 7.70808 6.50172 7.84745L6.50179 7.84851C6.50965 7.96438 6.5504 8.05665 6.5768 8.10851C6.60629 8.16643 6.64086 8.2177 6.67132 8.25881C6.7241 8.33005 6.7852 8.39833 6.84012 8.45563C6.80033 8.57852 6.76386 8.73121 6.75679 8.89533C6.74687 9.12592 6.79469 9.42746 7.0277 9.67604C7.25775 9.92145 7.59087 10.0321 7.97161 10.0534L7.97203 10.0534C8.60036 10.088 9.02284 10.0147 9.30485 9.96583C9.32631 9.96211 9.34696 9.95853 9.36683 9.95515C9.497 9.933 9.55043 9.92826 9.57759 9.92895C10.2075 10.5105 10.6322 11.4452 10.8217 12.4615C11.0101 13.471 10.9509 14.4794 10.6982 15.1746C10.6844 15.2036 10.6684 15.2382 10.6502 15.2778C10.3356 15.9597 9.3341 18.1305 6.98097 18.9141C7.10203 18.7622 7.2068 18.5854 7.28438 18.3776C7.51446 17.7616 7.46546 16.9811 7.1016 15.9674C6.73841 14.9556 6.03986 13.6507 4.879 11.9372C4.61699 11.3979 4.56577 10.6757 4.68242 9.83656C4.79988 8.9917 5.07925 8.08664 5.408 7.24479C5.73567 6.40572 6.10583 5.64594 6.39487 5.09489C6.53914 4.81985 6.6626 4.59795 6.74956 4.44552C6.79303 4.36933 6.82734 4.31057 6.85052 4.27128L6.8767 4.22722L6.88306 4.21664L6.88448 4.21429L6.88469 4.21395L6.88474 4.21387L6.88475 4.21384C6.88475 4.21385 6.88474 4.21386 6.88357 4.21315L6.07124 3.63666L6.45742 3.95425C6.07124 3.63666 6.07114 3.63678 6.07103 3.63691L6.07074 3.63727L6.06989 3.6383L6.06717 3.64163L6.05775 3.65325L6.02362 3.6959C5.99435 3.73279 5.95238 3.78639 5.89989 3.85528C5.79494 3.99301 5.6477 4.19217 5.47562 4.44145C5.13212 4.93907 4.68642 5.64108 4.28066 6.45621C3.48537 8.05383 2.77264 10.2265 3.48889 12.1462L6.63485 6.67505ZM6.63485 6.67505C6.59521 6.64024 6.55583 6.60208 6.51899 6.56072C6.43425 6.4656 6.30635 6.29096 6.29686 6.05347L6.29684 6.05281C6.28721 5.80359 6.42306 5.60225 6.48833 5.50786C6.54635 5.42395 6.62538 5.32372 6.70465 5.22319C6.73257 5.18778 6.76052 5.15233 6.78759 5.11754C7.00984 4.83198 7.29855 4.43688 7.58241 3.84677L7.58255 3.84647C7.67599 3.65254 7.75118 3.4117 7.82266 3.13099C7.858 2.9922 7.89098 2.84979 7.92501 2.70233L7.92831 2.68804C7.96087 2.54692 7.99458 2.40084 8.03056 2.25847C8.10378 1.96872 8.19408 1.66167 8.32695 1.39521C8.33443 1.38021 8.34212 1.36518 8.35003 1.35015C7.96281 1.54227 7.52413 1.81451 7.0661 2.15703C5.92488 3.01043 4.7196 4.25779 3.93141 5.66642L3.93139 5.66647C3.10326 7.14609 2.22692 8.91607 2.03863 10.6336C1.94553 11.4828 2.02309 12.3018 2.34622 13.0611C2.6681 13.8174 3.24747 14.5472 4.21069 15.2001L4.22335 15.2087L4.23546 15.218C4.83321 15.6789 5.20677 16.1632 5.26792 16.6644C5.33696 17.2303 4.9959 17.6288 4.6041 17.8195C4.27125 17.9815 3.8644 18.0232 3.48481 17.9453C3.68625 18.3319 3.9876 18.5015 4.23528 18.5423C4.68422 18.6161 5.24319 18.3363 5.39682 17.5797C5.44434 17.3454 5.41467 16.9923 5.29373 16.5246C5.17574 16.0682 4.98534 15.5554 4.76303 15.0256C4.55867 14.5385 4.33303 14.0502 4.11995 13.5891C4.10168 13.5496 4.08351 13.5102 4.06546 13.4711C3.84019 12.9833 3.62775 12.5192 3.48891 12.1463L6.63485 6.67505ZM9.75806 2.02824C9.84312 2.59057 9.89084 3.29608 9.94355 4.07628C10.0027 4.95151 10.0676 5.90729 10.2055 6.77358C10.3251 7.52426 10.5069 8.26239 10.8226 8.83998C9.7917 8.03631 9.52703 6.52218 9.55237 4.88481C9.56354 4.16333 9.62935 3.46663 9.68697 2.8566C9.69723 2.74805 9.70722 2.64225 9.7166 2.53954C9.73291 2.36098 9.74763 2.18882 9.75806 2.02824Z" stroke="white"/>
<path d="M11.249 3.96576C11.2493 3.97014 11.2497 3.97452 11.2501 3.9789C11.2554 4.03801 11.2607 4.09712 11.2659 4.15624C11.3017 4.55889 11.3375 4.96232 11.3841 5.3719C11.5962 7.23467 12.0255 9.15759 13.6012 11.0449C14.8236 12.3887 15.6847 14.4851 15.7423 16.602C15.7462 16.7438 15.7464 16.886 15.7429 17.0282M11.249 3.96576L12.8804 8.08061C13.1111 8.53527 13.3898 9.00664 13.7315 9.4968L13.4806 9.65454M11.249 3.96576C11.4153 4.59709 11.5299 5.21355 11.5565 5.71949L11.5565 5.71967C11.6481 7.44872 12.4849 8.43731 13.0635 9.12091C13.2332 9.32135 13.3806 9.49557 13.4806 9.65454M11.249 3.96576L13.7315 9.4968M15.7429 17.0282C15.9988 15.8382 15.9043 14.7564 15.6478 13.8007C15.2408 12.2848 14.4323 11.0814 13.8417 10.2026C13.7077 10.0032 13.5849 9.82043 13.4806 9.65454M15.7429 17.0282C15.7234 17.8145 15.5888 18.603 15.3138 19.3534C15.8188 18.6057 16.149 17.5453 16.2064 16.2921C16.2964 14.3297 15.7003 12.0375 14.2033 10.1332L14.2033 10.1331C14.0338 9.91752 13.8769 9.70546 13.7315 9.4968M15.7429 17.0282L13.7315 9.4968M13.4806 9.65454C13.4806 9.65455 13.4806 9.65456 13.4806 9.65456L13.7315 9.4968M15.9548 20.1745C16.3685 19.8371 16.7515 19.4489 17.105 19.0261C17.2879 18.8074 17.4619 18.5804 17.6272 18.3479L17.0455 18.0867C18.1137 14.9895 17.9965 13.4954 17.5437 12.3769M15.9548 20.1745L13.2347 5.94652C13.3865 6.45019 13.7232 7.03555 14.1134 7.62067C14.5102 8.21556 14.9915 8.85249 15.4643 9.46482C15.5932 9.63183 15.7212 9.79665 15.8469 9.95851C16.1866 10.3958 16.5094 10.8114 16.7881 11.19C17.1789 11.7206 17.4415 12.1245 17.5437 12.3769M15.9548 20.1745C16.715 19.2001 17.1377 17.8132 17.2054 16.3379C17.3056 14.153 16.645 11.6212 14.9895 9.51518M15.9548 20.1745L14.7258 9.72243L14.9895 9.51518M17.5437 12.3769L18.0071 12.1892M17.5437 12.3769L18.0071 12.1892M18.0071 12.1892C17.8466 11.7928 17.4216 11.1918 16.8963 10.5004L17.6616 18.2992L17.5182 18.2498L17.0823 18.0048C17.1405 17.9012 17.2131 17.7806 17.2951 17.6444C17.5438 17.2313 17.878 16.6759 18.1534 16.0266C18.5309 14.2511 18.386 13.1252 18.0071 12.1892ZM19.6376 14.2479C20.0676 12.6159 19.553 11.0755 18.7769 9.72354C18.3656 9.00712 17.891 8.36161 17.4649 7.79899C17.4104 7.72698 17.3559 7.65544 17.302 7.5846C16.9523 7.12536 16.6251 6.69568 16.4502 6.3589L19.6376 14.2479ZM19.6376 14.2479C19.6924 13.5727 19.6267 12.8574 19.3594 12.1387C19.0052 11.1863 18.3116 10.2678 17.1561 9.4443L17.1441 9.43571L17.1315 9.42784C15.7517 8.56277 15.3056 6.78658 15.0798 4.80474C15.0303 4.37079 14.9923 3.93916 14.9548 3.51472C14.9505 3.46577 14.9462 3.41691 14.9419 3.36816C14.9005 2.90024 14.8582 2.44051 14.8008 2.01506C14.7727 1.80612 14.7401 1.59708 14.6997 1.39287C14.9452 1.7666 15.1567 2.2575 15.3467 2.8142C15.5325 3.35866 15.6871 3.93238 15.8345 4.47986C15.8599 4.57396 15.885 4.66729 15.9101 4.75956C16.0741 5.36355 16.2436 5.96136 16.4501 6.35883L19.6376 14.2479ZM11.4813 0.715809C12.178 1.87722 12.4202 3.01641 12.661 4.14909C12.6864 4.26851 12.7118 4.38785 12.7377 4.50714C13.0636 6.00901 13.4807 7.59556 14.9895 9.51518M11.4813 0.715809L16.6136 13.5414C16.179 11.9226 15.3146 10.597 14.7259 9.72243L14.9895 9.51518M11.4813 0.715809C11.5455 0.751699 11.6087 0.798288 11.6716 0.856714C11.9505 1.11615 12.1895 1.5786 12.3917 2.20181C12.59 2.81267 12.732 3.50918 12.8591 4.17994C12.8771 4.27516 12.8949 4.37047 12.9127 4.46526C13.016 5.01805 13.116 5.55296 13.2347 5.94651L11.4813 0.715809ZM14.2961 21.1558C14.3533 21.085 14.4087 21.0134 14.4622 20.941L14.552 21.0495C14.4677 21.087 14.3824 21.1225 14.2961 21.1558Z" stroke="white"/>
<path d="M16.622 2.61172C17.2459 3.1928 17.9129 3.92679 18.4804 4.83116L16.622 2.61172ZM16.622 2.61172C16.8962 3.24082 17.085 3.77508 17.2343 4.23574C17.2992 4.43583 17.3535 4.61154 17.4032 4.77213C17.4695 4.98652 17.5274 5.17396 17.5911 5.35647C17.6967 5.65966 17.7978 5.88491 17.9297 6.07683C18.0605 6.26694 18.242 6.44 18.4585 6.64635C18.7802 6.95302 19.179 7.33322 19.6031 7.95216C19.3607 6.82221 18.9967 5.65448 18.4804 4.83125L16.622 2.61172Z" stroke="white"/>
<mask id="path-4-inside-1_73_661" fill="white">
<path d="M13.3905 2.48697C13.4819 2.99545 13.93 5.62548 14.2769 6.11519C14.0536 2.89474 14.3595 3.07774 14.0939 1.87508C13.8282 0.672012 13.3597 0.0201194 11.8108 0C13.3597 1.30443 13.2989 1.97855 13.3905 2.48697Z"/>
</mask>
<path d="M13.3905 2.48697L14.3747 2.30992L14.3746 2.30979L13.3905 2.48697ZM14.2769 6.11519L13.4609 6.69322L15.521 9.60163L15.2745 6.04602L14.2769 6.11519ZM14.0939 1.87508L13.1174 2.0907L13.1174 2.09077L14.0939 1.87508ZM11.8108 0L11.8238 -0.999916L9.02795 -1.03623L11.1666 0.764889L11.8108 0ZM12.4063 2.66402C12.4504 2.90938 12.5888 3.71449 12.7599 4.51667C12.8452 4.917 12.942 5.33257 13.0432 5.68743C13.0937 5.86446 13.1489 6.03917 13.2085 6.19554C13.2618 6.33563 13.3426 6.52622 13.4609 6.69322L15.0929 5.53717C15.1245 5.58173 15.1153 5.58302 15.0774 5.48355C15.0458 5.40038 15.0083 5.2853 14.9666 5.13896C14.8833 4.84706 14.7973 4.48153 14.7159 4.09957C14.5533 3.33719 14.422 2.57305 14.3747 2.30992L12.4063 2.66402ZM15.2745 6.04602C15.1655 4.47444 15.1862 3.74879 15.2008 3.26875C15.2171 2.73001 15.2294 2.37948 15.0703 1.6594L13.1174 2.09077C13.224 2.57335 13.2161 2.73265 13.2017 3.20818C13.1855 3.74242 13.1649 4.53549 13.2793 6.18436L15.2745 6.04602ZM15.0704 1.65947C14.9257 1.00422 14.6869 0.28729 14.11 -0.242598C13.5127 -0.791076 12.7247 -0.988213 11.8238 -0.999916L11.7978 0.999916C12.4458 1.00833 12.6665 1.1472 12.7572 1.23047C12.8681 1.33232 12.9964 1.54287 13.1174 2.0907L15.0704 1.65947ZM11.1666 0.764889C11.8767 1.36287 12.1379 1.75064 12.2458 1.97508C12.3583 2.20919 12.3382 2.28609 12.4063 2.66415L14.3746 2.30979C14.3512 2.17943 14.3157 1.66506 14.0485 1.10889C13.7766 0.54306 13.2938 -0.0584428 12.455 -0.764889L11.1666 0.764889Z" fill="white" mask="url(#path-4-inside-1_73_661)"/>
</svg>
